<?xml version="1.0" encoding="UTF-8"?><svg id="design" xmlns="http://www.w3.org/2000/svg" viewBox="0 0 640 642.87"><defs><style>.cls-1{fill:#ffba03;}</style></defs><polygon class="cls-1" points="541.44 381.06 540.87 417.13 543.97 451.83 544.3 487.39 524.69 489.06 493.27 485.56 461.82 485.3 430.43 488.3 402.1 471.47 389.23 435.09 375.57 399.25 361.39 363.45 352.25 326.08 343 288.76 334.76 251.18 330.15 233.07 329.5 268.75 328.95 304.93 329.16 341.1 330.63 377.28 331.01 413.45 329.88 449.64 330.66 486.42 310.76 488.75 310.87 451.39 313.63 414.95 313.21 378.51 310.79 342.08 313.44 305.65 311.5 269.22 314.02 232.61 309.34 232.61 301.05 277.52 291.93 310.74 283.6 344.1 273.84 377.07 261.2 409.06 249.94 441.54 235.96 472.97 210.79 486.19 173.24 488.44 135.75 489.23 98.59 487.08 97.16 451.98 96.38 416.51 98.25 380.11 53.41 410.77 41.64 418.43 31.68 417.49 33.66 407.83 61.66 388.27 89.64 367.42 116.68 345.35 143.72 323.33 170.94 301.54 197.23 278.65 225.16 257.55 249.88 232.87 273.4 207.09 296.74 181.2 320.17 153.36 353.9 195.07 380.63 221.23 406.27 248.49 433.53 274.13 462.58 297.72 491.08 321.94 520.26 345.36 550.23 367.73 580.4 389.82 600.54 405.93 608.53 417.98 592.18 416.42 558.7 393.45 541.44 381.06"/></svg>