<?xml version="1.0" encoding="UTF-8"?><svg id="design" xmlns="http://www.w3.org/2000/svg" viewBox="0 0 640 642.87"><defs><style>.cls-1{fill:#ffe900;}</style></defs><g id="QaqPju"><g><path class="cls-1" d="m436.36,380.02c1.29,2.65,1.45,4.87,2.52,6.92,5.08,9.74,13.34,17.81,18.42,27.55,5.09,9.73,6.7,21.28,11.77,31.02,4.73,9.09,5.03,17.7-1.2,23.84-6.3,6.21-14.37,5.44-23.68.59-10.79-5.62-22.23-9.99-33.1-15.67s-22.05-9.01-33-14.74c-.81,2.33,2.23,2.86,1.56,4.99-2.98,9.52-8.33,18.31-11.31,27.83-2.98,9.52-4.86,19.39-7.84,28.91s-8.98,18.1-11.96,27.63-1.85,20.34-4.84,29.86c-3.47,11.05-13.54,15.73-23.64,15.74-10.07,0-17.21-5.74-20.63-16.65-3.01-9.61-3.57-19.98-6.58-29.59s-9.05-18.27-12.05-27.88c-3-9.61-6.44-19.09-9.44-28.7-3-9.61-8.24-18.52-11.25-28.13-.53-1.69,2.05-3.58,1.32-5.71-5.76,2.98-12.45,2.88-17.9,5.72-7.97,4.16-14.86,10.37-22.83,14.53-7.96,4.16-14.53,11.01-22.49,15.16-9.71,5.07-18.59,1.47-25.02-4.87-6.42-6.32-8.3-14.41-3.31-24,5.12-9.82,13.71-17.82,18.84-27.64s6.09-21.81,11.21-31.62c.91-1.75,3.4-2.99,4.58-5.35-6.43-2.07-12.81-3.63-18.96-5.55-11.37-3.55-22.42-8.14-33.79-11.68s-22.36-8.32-33.73-11.86c-11.37-3.54-23.06-6.08-34.43-9.62-10.57-3.29-19.76-10-19.64-20.01.11-9.71,8.48-18.72,18.9-21.96,9.66-3,19.62-5.03,29.28-8.03,9.66-3,20.02-3.74,29.68-6.75,9.66-3.01,19.42-5.68,29.07-8.69,9.66-3.01,18.96-7.16,28.61-10.17,1.51-.47-.04-1,1.88-1.71-5.68-10.92-7.97-22.66-13.5-33.25-5.79-11.11-11.81-22.09-17.58-33.21-4.61-8.88-6.1-18.79.05-25,6.11-6.17,15.57-3.58,24.34.98,9.75,5.06,21.41,6.45,31.14,11.53s19.51,10.09,29.25,15.16c2.23,1.16,1.83,3.15,4.66,4.57,2.16-6.83,3.13-12.77,5.17-19.28,3.51-11.2,11.72-20.92,15.22-32.12,3.5-11.2,2.39-23.84,5.89-35.04,3.5-11.2,12.5-20.68,16-31.87,3.45-11.02,7.62-20.99,17.58-21.05,10.22-.07,15.03,9.75,18.55,21.05,2.99,9.57,10.46,17.74,13.44,27.31s1.85,20.42,4.84,29.99,5.65,19.24,8.64,28.81,11.56,17.4,14.54,26.97c.53,1.69-2,4.19-1.28,6.3,4.94-2.56,8.45-7,13.09-9.42,8.37-4.37,17.38-7.49,25.75-11.87s18.09-6.15,26.46-10.52c9.73-5.09,19-8.41,25.44-2.09,6.56,6.44,4.21,16.33-1.03,26.38-5.12,9.82-8.04,20.79-13.17,30.6-5.13,9.81-12.89,18.25-18.02,28.06-.83,1.59,2.65,3.06,1.67,5.05,1.65.66.86-.56,2.34-.09,9.69,3.03,18.67,8.37,28.36,11.4,9.7,3.03,19.36,6.16,29.06,9.18,9.7,3.03,18.53,8.82,28.23,11.85s21.16.38,30.86,3.4c11,3.43,16.28,13.67,16.31,23.8.02,10.06-5.64,18.96-16.66,22.43-9.78,3.07-20.27,3.87-30.05,6.93s-19.02,7.86-28.8,10.92-19.92,4.97-29.7,8.03-19.94,4.91-29.72,7.97c-.85.27-.79,1.9-2.41,2.43Zm-116.31-217.53c-.38-.02-.58-.39-.96-.41-.58,1.63,2.15,4.39,1.64,6.04-3.54,11.31-10.82,21.45-14.37,32.76-3.55,11.31-5.66,23.07-9.18,34.38-3.52,11.32-8.82,22.09-12.27,33.43-2.99,9.81-7.78,16.22-17.55,19.19-11.34,3.45-21.99,9.12-33.31,12.64s-22.44,7.64-33.75,11.18c-11.31,3.55-23.36,4.73-34.67,8.27-1.62.51-1.49.51-4.1,1.5,2.56.96,1.71,2.71,3.19,3.17,11.25,3.52,23.79,2.95,35.04,6.49,11.25,3.54,21.53,10.15,32.79,13.65,11.26,3.5,22.53,6.99,33.82,10.38,10.68,3.21,14.09,10.01,17.29,20.66,3.37,11.24,9.87,21.53,13.35,32.73,3.48,11.2,7.43,22.26,10.96,33.44s9.29,21.68,12.8,32.87c.51,1.62-1.94,3.41-.94,6.05.99-2.78,4.02-2.93,4.54-4.59,3.62-11.54,5.04-23.77,8.66-35.31s4.35-23.98,7.96-35.53c3.61-11.54,10.49-22.06,14.08-33.61,2.53-8.15,6.91-14.09,15.08-16.62,11.55-3.57,24.27-3.44,35.81-7.04,11.54-3.61,21.67-11.72,33.21-15.35s23.65-5.43,35.19-9.05c1.62-.51,2.85-1.46,5.5-2.46-2.78-.99-3.9-2.45-5.55-2.97-11.54-3.62-22.69-8.47-34.23-12.1s-23.39-6.24-34.94-9.85-24.24-3.52-35.79-7.11c-7.94-2.47-13.9-9.53-16.33-17.48-3.18-10.41-5.51-21.07-8.76-31.46-2.71-8.65-3.15-18.01-5.86-26.67-2.71-8.65-5.08-17.41-7.79-26.06s-7.86-16.52-10.57-25.17Z"/><path class="cls-1" d="m353.36,321.49c-.05,16.72-16.9,29.82-33.63,29.77-16.72-.05-29.43-13.23-29.38-29.98.05-16.74,12.83-31.82,29.58-31.77,16.74.05,33.48,15.23,33.43,31.98Z"/></g></g></svg>