<?xml version="1.0" encoding="utf-8"?>
<!-- Generator: Adobe Illustrator 27.1.1, SVG Export Plug-In . SVG Version: 6.00 Build 0)  -->
<svg version="1.1" id="design" xmlns="http://www.w3.org/2000/svg" xmlns:xlink="http://www.w3.org/1999/xlink" x="0px" y="0px"
	 viewBox="0 0 640 642.9" style="enable-background:new 0 0 640 642.9;" xml:space="preserve">
<style type="text/css">
	.st0{fill:#FF6919;}
</style>
<g id="jovMzo">
	<path class="st0" d="M0,238.2c13.8,0.1-13.8-0.4,0-0.3c11.6,0,25.6-0.2,35.6-0.2s20-1.2,31.7-1c5.1,0.1,6.2-1.2,8.1-5.8
		c3.7-9.2,7.1-18.9,12.3-27.2S99.2,187.2,106,180c6.1-6.5,13.4-11.8,20.2-16.8c7.1-5.2,15-9.4,22.7-13s17-3.3,25.5-5.4
		c8.2-2.1,16.1-7.1,24.9-7.8c8.6-0.7,17.3,2.2,25.7,2.4s17.1-0.1,25.5,0.9c8.5,1.1,16.7,3.1,25,5.2s16.3,4.5,24.3,7.6
		s15.8,5.9,23.5,9.9c1.9,1,6.8,2.1,8.8,1.1c8.3-4.3,15.4-10.9,23.9-14.1s17.4-7,26.4-9s18.4-3.2,27.6-4.1c9.1-0.9,18.5,2.4,27.7,2.6
		c9.1,0.2,18.6-2.3,27.8-1c8.5,1.2,16.8,3.1,24.5,5.5s15,7.7,22.2,11.6c7.3,4,13.6,9.1,20,14.5s13.5,9.7,19,16.1
		s11.7,12.1,16.1,19.4c5,8.2,6.4,18.5,10.4,27.3c1.7,3.6,4,2.3,7.9,2.3c10.5-0.1,19.6,4.9,27.2,4.8c17.7,0,27.2-4,27.2-4v22.4v22.5
		c0,0-20.5-0.9-24.1-0.9c-3.2,0-8-1.7-24.7-1.8c1.5,9.4,1.6,19.7,2.1,28.8c0.6,9.4,2.1,18.5,1.6,27.8s-1.7,18.8-3.2,28.1
		c16.8,0,21.1-1.3,24.2-1.3c3.5,0,24-1.1,24-1.1V384v21.6c0,0-9.4,0.6-26.5,0.6c-7.3,0-16.1,0.3-26.5,0.2c-5.4,0-5.7,1.8-7.6,6.4
		c-3.9,9.6-11.8,17.1-17.4,25.6s-12.3,15.8-19.6,23.2c-6,6.1-11.5,11.9-18.2,16.6c-6.9,4.9-13.2,10.3-20.7,13.8s-14.9,8.1-23,10.2
		s-16.8-0.7-25.3,0c-8.6,0.7-17.1,3.4-25.6,3.2c-8.6-0.1-17-2.4-25.5-3.5c-8.5-1-17.6,0.8-26-1.3s-16.9-4.1-25-7.1
		s-15.9-6.8-23.6-10.9c-2-1-3.4-0.8-5.4,0.2c-7.8,4.1-17.2,4.4-25.2,7.4s-16.2,6.1-24.6,8.1s-16.5,6.8-25.1,7.8s-17.5-3.5-26.3-3.4
		c-8.6,0-17.5,4.5-26.2,3.7c-9.2-0.9-17.4-6.3-25.8-8.6c-8.8-2.4-16.4-6.5-24.3-10.5c-8-4-18.3-4.6-25.3-10.3
		c-6.9-5.5-11.7-13.7-17.7-20.7c-5.6-6.6-9.6-14.7-14.3-22.6c-4.8-8-11.4-15.1-15.8-23.4c-0.9-1.6-1.5-4.5-3.1-4.5
		c-10.2,0-17-1.4-22.2-1.3c-9,0-13.2,1.1-22.1,1.2c-5.2,0-15.9-0.7-26.1-0.6c-0.3-0.3,0.3,0.3,0,0c0.1-7.1,0-21.4,0-21.4
		s-0.1-12.6,0-19.9c17.8,0,27.3,0,33,0s12.3,0.2,30,0.2c-1.6-9.3-4.5-20.2-5-29.5c-0.5-9.3,2.5-18.5,3.1-27.9
		c0.6-9.1,0.4-19.9,1.9-29.4c-18.8,0-24.3,0.8-29.9,0.8c-5.1,0-14.9-0.7-33.1-0.7c0.3-6.7,0-19.1,0-19.1s-0.4-13.7,0-20.6
		C0.3,237.4-0.3,238.5,0,238.2L0,238.2z M104.6,363.1c2.2,0.1,5.4,0.2,7.4,0.3c8.1,0,16.2-0.1,24.2-0.1s16.2-1.1,24.2-0.9
		c8.7,0.2,17.4,0.5,26,1.5c8.6,1,17.6,1,26,2.9c8.4,1.9,17.1,4.3,25.2,7.2s15.9,7.3,23.6,11.4c7.2,3.8,14.1,8.4,21,12.7
		c6.9,4.3,11.9,11.6,18.8,16.1s15.6,5.9,22.5,10.3c3,1.9,5.3,5.3,8.4,2.9c5.9-4.4,11.5-9,17.5-13.3c6.7-4.8,13.7-8.9,20.6-13.1
		s14-8.2,21.3-11.9c7.3-3.7,14.5-7.4,22.1-10.3c7.6-2.9,15.7-3.8,23.7-5.7c7.9-1.9,15.2-6.5,23.5-7.5c8.9-1,17.8-2.8,26.7-3.2
		c8.9-0.4,17.9-0.3,26.8-0.5c8.9-0.2,18,3.2,26.9,2.9c2.4-0.1,3.4-1.1,5.5-0.5c2-9.8,3.2-18.8,3.9-28.1c0.7-9.7,2.8-19.2,2.1-28.8
		c-0.7-9.4-1.7-19.8-3.7-29.4c-8.9,0.2-18.6,2.2-27.5,2.4s-17.9,2.3-26.8,2.1c-8.3-0.2-16.4-3.8-24.5-4.7s-16.8,0.5-24.8-1.2
		s-14.7-8.6-22.5-11.1c-7.8-2.5-17.1-1.2-24.6-4.7s-14.4-8.1-21.5-12.4c-7.8-4.7-15.8-9.3-23.3-14.3c-7.6-5.1-14.6-10.9-22.1-16.1
		c-3.6-2.5-6.3-4-9.7-1.4c-5.5,4.2-11.6,7.5-17.2,11.5c-6.7,4.8-12.6,10.6-19.5,14.8c-7,4.3-14.2,8-21.5,11.6
		c-7.3,3.7-14.3,8.2-21.9,11.1s-15.2,6.6-23.1,8.6c-7.8,2-16.6-0.5-24.8,0.5c-9.8,1.2-19.3,4.6-29.1,5.1s-19.7,0.3-29.5,0.8
		c-9.6,0.4-18.7,0.1-28.4,0c-1.9,9.2-1.7,17.8-2.4,26.9s-4.3,18.5-3.7,27.7S102.7,353.9,104.6,363.1L104.6,363.1z M285,452
		c-6.5-5.4-14.1-11-20.9-15.3s-14.4-8.4-21.8-11.9c-7.5-3.5-15.6-5.4-23.5-7.9s-15.8-4.2-24-5.8s-16.2-1.2-24.5-2s-16.2-1-24.5-1
		c-8.2,0-14.7-1.7-23.1-1.1c4.6,8.5,9.1,14.6,15,21.3c6.2,7.1,11,15.8,18.9,20.7s17.6,5.1,27,7.5c8.4,2.2,16.3,6.7,24.6,7.3
		s17.2-0.3,25.7-1c8.4-0.7,17.1-1.5,25.4-3.3S276.8,454.6,285,452z M285,190.7c-8.7-2.6-18.6-5.2-27.3-7s-17.9-3-26.9-3.6
		s-17.9,0.7-27,1.6s-17.4,3-26.2,5.9c-8.5,2.7-15.1,7.6-22,12.3c-7.1,4.8-12.8,10.3-18.3,16.9c-5.4,6.4-10.5,11.1-14.6,18.9
		c8.3,0.6,15,0.3,23.1,0.3s16.8,3,24.9,2.3s16-5.5,24-7.1c8.1-1.6,16.9-0.5,24.8-3.1s15.3-6.4,22.9-9.9c7.4-3.5,15-7,22.1-11.5
		S278.5,196.2,285,190.7L285,190.7z M534.2,405.7c-7.8-1-17.3-1.5-25.8-1.5c-8.1,0.1-16.4,0.8-24.7,1.7s-16.1,3.4-24.2,5.1
		s-16,4-23.8,6.4c-8.1,2.5-15.3,6.6-22.6,9.7c-8,3.4-15.1,7.1-21.6,11.1c-7.8,4.8-14,7.2-18.9,12.7c7.3,2.8,13.2,4.1,20.6,5.7
		c7.5,1.6,14.6,6.1,22.3,6.8s15.5-2.7,23.2-2.7c8.1,0,16.1,2.5,23.4,1.1c7.8-1.5,15.2-4.6,22.2-7.6s14.3-6.7,20.4-11.4
		c6-4.6,11.7-10.2,16.7-16.4C526,420.7,530.3,412.9,534.2,405.7L534.2,405.7z M534.1,237.2c-4-7.4-9.1-15.2-14.1-21.2
		c-5.3-6.4-11.3-12-17.8-16.7s-14.1-7.6-21.8-10.6c-7.3-2.8-15-4.5-23.4-5.7c-10.4-1.5-20.4-0.4-30.8,0.1s-20.2,2-30.4,4
		c-8.4,1.7-15.4,2.1-23.9,4.4c6.5,5.4,12.2,8.6,19,13s12.7,11.5,20.1,15s16.6,3.2,24.4,5.7c7.9,2.5,15.1,7.7,23.2,9.3
		c8.1,1.6,16.5,1.9,24.8,2.6s16.5,1.6,24.8,1.7S525.8,237.8,534.1,237.2L534.1,237.2z"/>
</g>
</svg>
