<?xml version="1.0" encoding="UTF-8"?><svg id="design" xmlns="http://www.w3.org/2000/svg" viewBox="0 0 480 540"><defs><style>.cls-1{fill:#c0e3ff;}</style></defs><path class="cls-1" d="m111.04,186.18c8.64.46,18.61,5.48,29.36,11.05,10.92,5.67,22.94,9.28,31.76,7.9-5.01-6.63-12.13-11.78-17.78-18-5.65-6.21-9.05-14.16-13.43-21.31-5.48-9.36-9.06-17.93-8.95-26.41.13-9.87,6.35-16.87,12.22-24.26,5.68-7.15,11.93-12.64,21.16-16.19,8.42-3.24,17.08-5.45,27.03-4.7,10.66-.03,21.01-3.32,30.99-3.18,10.6.15,20.92-.92,30.96-.66,10.51.27,20.76,1.29,30.89,1.58s20.5,6.29,30.76,6.51,20.59-2.17,30.97-2.12,20.39-1.47,30.89-1.7c10.04-.22,20.16-2.76,30.75-3.32,9.96-.52,20.37.74,31-.15,11.64.77-7.68,14.05-12.38,15.54-10.07,5.25-21.24,14.46-17.57,14.1,1.83-.18,4.96-1.15,6.84-.88-.45,8.26-10.41,16.9-19.86,20.8-13.78,5.69-26.97,3.68-9.75,4.42-4.47,10.91-14.66,19.51-26.66,23.02-10,2.93-22.1,5.31-34.33,5.42-11.45.11-23.33-2.32-34.42-2.89-13.09-.67-25.15-2.37-34.34-1.35-13.7.87-22.01,11.64-22.48,22.42s7.17,20.54,20.54,23.11c9.79,3.82,18.78,8.95,28.02,9.71,9.99.81,19.34-4.36,28.87-6.21,9.53-1.85,20.1-.32,29.35-3.89s17.7-8.47,26.64-12.69,17.44-8.96,26.36-12.99c8.98-4.05,17.86-8.2,27.1-11.24,9.12,2.84,14.13,12.64,18.02,25.27,2.92,9.48,8.65,20.21,9.23,31.73s-1.05,22.74-2.17,33.02c-1.44,13.27-7.83,24.02-11.19,30.97-2.93,15.24-7.26,21.3-16.38,21.26-7.72-.03-17.9-3.03-29.18-8.82-8.22-4.21-15.84-12.08-25.58-17.17-8.73-4.56-18.7-7.93-28.41-11.8s-19.86-3.96-29.97-5.83-19.53-3.3-29.92-2.2c-9.66,1.02-19.46,2.49-29.39,6.98-9.65,4.87-13.82,15.25-12.17,24.92,1.59,9.31,8.2,19.42,20.23,20.54,9.16,1.29,21.48,1.46,34.59,1.18,11.1-.24,22.81-.49,34.25-.04,12.23.48,24.69-2.26,34.6.97,11.89,3.87,18.85,10.4,22.99,21.44-17.23.22-3.35,6.39,10.26,12.49,9.33,4.18,19.17,8.11,19.38,16.38-1.88.21-3.18.48-5.01.25-3.66-.46,8.28,6.25,18.18,11.8,4.66,1.63,22.68,16.38,11.02,16.8-10.6-1.21-21.06.59-31-.23-10.57-.87-20.69-2.3-30.72-2.81-10.49-.54-20.62-4.07-30.76-4.33-10.38-.26-20.66-1.07-30.92-1.15s-20.53.31-30.92.3-20.39-1.35-30.9-1.39-20.32,2.29-30.92,2.12c-9.98-.16-20.28-2.98-30.93-3.33-9.98.45-18.53-.69-26.85-4.17-9.13-3.82-15.53-9.22-20.99-16.54s-8.79-14.92-8.62-24.79c.14-8.48.21-17.74,5.97-26.93,5.25-8.03,12.41-14.59,19.12-21.48,6.74-6.92,14.45-14.53,19.81-22.42-9.67-1.96-19.89-4.33-26.92-9.92s-11.9-14.2-18.67-20.56-14.29-10.85-22.85-14.95c0,0-15.88-4.09-36.99-9.46-11.51-2.92-22.93-8.19-35.86-10.47-3.45-13.64,9.38-6.55,23.27-13.7,7.94-4.09,16.04-10.71,24.66-14.12,10.41-4.12,21.2-1.63,28.08-1.26Z"/><path class="cls-1" d="m67.07,267.78c-1.42-6.83-.02-22.6-1.16-37.96-1.14-15.32-5.12-32.54-5.39-39.55,7.02-.1,28.88-15.8,26.48-24.12-1.58-5.47-10.78-4.05-13.83-1.45-4.26,3.64-9.16,11.27-12.44,16.91.6-14.69,2.05-32.03,5.08-45.83.1-.44,3.79.61,3.53,1.09-3.82,6.89-6.97,14.72-8.39,22.44-.22,1.22-.7,2.44-.92,3.66.42-5.97-2.94-11.61-6.79-16.13-3.69-4.34-7.92-8.32-12.88-3.67-3.78,3.53-.57,8.7,1.58,12.97,3.4,6.74,10.12,11.96,16.78,15.12-.81,5.38-2.68,10.57-2.72,15.98-.03,3.82,1.1,15.98,1.35,28.11.26,12.15-1.06,24.76-.26,28.5.17.78,4.94-.13,5.08.66-3.08-6.49-11.06-9.4-16.31-14.76-3.85-3.93-10.56-10.85-13.21-2.88-2.39,7.2,4.24,17.72,8.97,22.23,4.6,4.39,13.55,9.32,20.3,9.4.78,3.51,3.66,5.72,5.59,8.87.89,1.46-.05,2.3-.45.41Z"/></svg>