<?xml version="1.0" encoding="UTF-8"?><svg id="design" xmlns="http://www.w3.org/2000/svg" viewBox="0 0 640 642.87"><defs><style>.cls-1{fill:#d6f267;}</style></defs><g id="_9YOrTN"><path class="cls-1" d="m258.89,54.65c-6.17,11.35-8.65,20.78-10.22,31.32s-1.02,23.15,7.96,34.15c6.11,8.09,14.54,14.42,20.05,22.9s10.29,17.43,15.05,26.44c4.66,8.83,10.19,17.54,14.01,27.09s5.51,18.25,8.3,28.25c5.16-7.8,9.7-14.55,14.3-22.64s6.28-17.72,10.49-26.04,13.4-14.2,17.38-22.64,5-18.25,8.92-26.72c3.91-8.46,9.8-16,13.8-24.42,4.01-8.42,5.46-18.07,9.72-26.36,8.35-17.78,18.96-18.6,31.94-4.05,6.98,7.83,14.32,14.28,20.36,20.84,7.31,7.94,14.23,14.72,20.07,21.05,7.81,8.47,13.5,16.19,18.46,22.38,8.87,11.08,16.96,18.66,15.55,25.39-1.41,6.71-12.06,9.53-25.11,15.7-7.1,3.36-15.07,8.95-25.95,13.02-8.03,3-17.29,5.82-27.49,9.49-8.36,3.01-17.2,7.01-27.08,10.62-8.51,3.11-17.04,7.91-26.71,11.56-8.58,3.24-18.31,5.05-27.83,8.78,4.1,18.41,5.44,29.11,4.61,35.69-2.1,16.65-13.85,7.11-6.48,32.82,2.77,12.15,5.5,22.25,8.18,31.2,3.48,11.62,3.99,21.95,6.11,31.7,2.16,9.93,4.79,19.49,4.11,31.64-.51,9.12-1.4,19.53-4.21,31.97-2.24,9.08-3.32,18.44-5.04,27.68-1.73,9.26-4.27,18.35-5.75,27.57s-3.37,18.61-4.92,27.73c-1.6,9.45-2.36,18.9-4.32,27.85-2.08,9.46-2.16,19.39-5.01,28.01-3.06,9.24-9.67,17.7-14.07,25.64-4.24-9.12-7.88-18.65-11.19-27.14-3.65-9.37-9.06-17.7-11.67-26.43-2.87-9.59-3.36-19.43-5.12-28.44-1.9-9.72-.35-19.45-1.13-28.71-.82-9.7-1.98-18.98-1.78-28.45s2.23-18.77,3.26-28.36c1.01-9.35-2.58-19.44-.98-29.08s7.82-17.73,9.7-27.41c1.77-9.09,1.73-18.81,3.66-28.52,1.81-9.05,1.79-18.78,3.63-28.52,1.71-9.07,2.5-17.18,4.14-26.98-7.89-4.01-9.8-11.24-11.52-18.34-1.62-6.7-.59-13.86,4.02-21.74,4.38-7.5,1.15-11.22-3.88-14.35-11.57-7.19-22.85-14.69-35.38-19.58-9.54-3.73-18.72-8.33-28.35-11.8s-20.08-4.68-29.69-8.18-17.53-11.44-27.04-15.25c-7.64-3.06-13.91-8.76-20.69-14.34,6.5-6.41,11.93-14.23,19.57-17.79,10.11-4.95,15.56-12.1,20.29-17.97,6.3-7.82,8.63-15.97,11.36-24.18s5.4-17.71,11.87-25.09c4.88-5.57,14.4-6.56,25.16-10.69,7.03-2.7,11.87-6.45,22.57-8.29Z"/></g></svg>