<?xml version="1.0" encoding="UTF-8"?><svg id="design" xmlns="http://www.w3.org/2000/svg" viewBox="0 0 640 642.87"><defs><style>.cls-1{fill:#ad59f9;}</style></defs><path class="cls-1" d="m146.75,235.2c11.61.62,27.8,2.41,42.24,9.9s31.38,19.51,43.23,17.66c-6.73-8.91-16.01-20.76-23.61-29.11s-18.93-13.84-24.81-23.44c-7.37-12.58-12.27-25.99-12.12-37.38.17-13.26,7.6-25.9,15.49-35.83s19.6-15.15,32.01-19.92c11.32-4.35,23.48-5.38,36.86-4.38,14.32-.04,28.19-.7,41.6-.52,14.24.2,28.08-1.95,41.57-1.6s27.87,2.19,41.49,2.59,27.81-2.15,41.59-1.84c13.79.3,27.52,2.74,41.48,2.8s27.38-1.61,41.49-1.92,27.23-.8,41.45-1.54c13.39-.7,27.27,3.74,41.55,2.55,15.64,1.03-9.94,14.69-16.26,16.69-13.52,7.06-29.06,17.37-24.12,16.9,2.46-.24,2.15.39,4.67.75-.61,11.1-9.28,22.14-21.97,27.38-18.52,7.65-36.9,5.37-13.77,6.37-6,14.66-20.25,21.72-36.38,26.44-13.44,3.93-28.63,4.56-45.06,4.71-15.38.14-31.45,6.39-46.35,5.63-17.59-.9-33.55-5.24-45.9-3.87-18.41,1.17-29.8,14.62-30.44,29.11-.63,14.36,8.53,32.14,26.49,35.59,13.16,5.13,26.83,3.19,39.25,4.2,13.43,1.09,26.63,3.61,39.44,1.12,12.8-2.49,25.22-7.62,37.65-12.41,12.13-4.67,23.35-11.92,35.37-17.58,11.87-5.6,22.6-14,34.58-19.41,12.07-5.45,26.08-2.51,38.49-6.6,12.25,3.82,23.76,11.52,28.99,28.48,3.92,12.73,5.43,28.71,6.22,44.19s-.75,30.4-2.25,44.22c-1.94,17.83-5.15,33.68-9.67,43.01-3.94,20.47-14.42,26.05-26.68,26.01-10.38-.04-22.78-5.33-37.94-13.1-11.04-5.66-24.11-10.78-37.19-17.62-11.73-6.13-23.97-12.64-37.02-17.83-12.62-5.02-26.4-5.76-39.98-8.27-13.3-2.46-26.35-6.97-40.31-5.5-12.98,1.37-25.67,5.91-39,11.94-12.97,6.54-19.2,19.99-16.99,32.98,2.13,12.51,11.88,21.65,28.05,23.15,12.3,1.74,28.35,5.56,45.95,5.18,14.91-.32,30.72-1.43,46.09-.83,16.43.64,32.05,1.79,45.36,6.12,15.98,5.2,28.36,12.99,33.92,27.82-23.15.3-6.22,5.78,12.06,13.98,12.53,5.62,28.38,11.99,28.65,23.1-2.53.29-7.24,1.03-9.7.72-4.92-.62,10.8,8.34,24.11,15.8,6.26,2.19,30.87,22.4,15.21,22.97-14.24-1.62-28.23-.77-41.59-1.87-14.2-1.17-27.86-2.01-41.34-2.71-14.1-.73-27.7-4.85-41.32-5.2-13.95-.36-27.72-2.54-41.51-2.65-13.78-.11-27.58,2.17-41.55,2.16s-27.43,2.79-41.55,2.73-27.32-.99-41.55-1.22c-13.41-.22-27.19-5.97-41.5-6.44-13.4.61-24.73-1.98-35.91-6.66-12.27-5.14-23.28-10.31-30.62-20.14-7.59-10.16-10.87-21.74-10.64-35,.19-11.39-.45-25.12,7.29-37.47,7.06-10.79,18.47-18.54,27.48-27.8,9.05-9.3,17.76-18.44,24.96-29.05-13-2.63-23.32-8.54-32.76-16.05s-20.72-13.76-29.82-22.3c-8.86-8.32-16.08-17.36-27.58-22.87-24.14-9.12-21.22-6.15-49.58-13.35-15.46-3.93-29.89-11.24-47.27-14.3-4.64-18.33,13.73-4.6,32.4-14.2,10.67-5.49,21.82-12.52,33.4-17.11,13.98-5.54,26.19-8.51,35.44-8.01Z"/><path class="cls-1" d="m93.77,344.05c-1.9-9.18-5.99-29.11-7.52-49.75s-6.25-42.96-6.62-52.38c9.43-.14,34.46-20.95,31.24-32.12-2.12-7.36-11.17-6.75-15.27-3.26-5.73,4.89-11.97,15.41-16.38,22.98.8-19.74,5.49-42.39,9.56-60.93.13-.59,1.1-.44.75.19-5.13,9.25-7.26,20.59-9.17,30.97-.3,1.63.44,3.2.15,4.84.57-8.02-5.73-16.15-10.9-22.23-4.96-5.82-8.91-8.3-15.58-2.06-5.07,4.75-10.17,12.87-7.27,18.61,4.57,9.06,24.48,9.91,33.42,14.16-1.09,7.23-8.49,16.75-8.55,24.02-.04,5.14,4.82,21.44,5.16,37.73.35,16.32-2.32,33.04-1.25,38.06.23,1.05-1.25,3.5-1.06,4.56-4.14-8.72-8.89-15.42-15.94-22.62-5.18-5.29-8.36-13.45-11.92-2.74-3.21,9.67.58,21.96,6.94,28.03,6.18,5.9,19.16,10.42,28.22,10.54,1.05,4.71-.41,12.51,2.18,16.74,1.2,1.96,10.33-.8,9.8-3.34Z"/></svg>