<?xml version="1.0" encoding="UTF-8"?><svg id="design" xmlns="http://www.w3.org/2000/svg" viewBox="0 0 640 642.87"><defs><style>.cls-1{fill:#873525;}</style></defs><path class="cls-1" d="m602.49,480.71c-3.01-10.71-3.66-22.01-9.87-30.67-6.24-8.68-15.21-15.44-22.57-23.35-6.31-6.78-12-14.32-18.84-20.59-7.96-7.3-15.64-15.06-23.91-22-9.06-7.59-21.68-10.82-30.95-18.17-2.41-1.91-2.45-6.8-.78-9.7.5-.87-.59-1.88-.37-2.86,1.76-7.95,5.03-15.58,6.91-23.5,2.74-11.53.14-21.42-4.22-32.62-4.98-12.8-6.7-26.88-11.56-39.73-2.05-5.42-2.06-11.18-2.11-16.82-.12-12.31-.17-24.52.93-36.8,1.46-16.39-3.82-30.76-15.2-43.08-7.05-7.64-15.12-13.98-23.15-20.51-14.9-12.1-29.33-17.71-48.73-11.6-13.93,4.39-28.91,5.4-43.12,8.93-14.82,3.69-30.49,4.61-45.07,9.07-16.55,5.07-32.67,11.98-48.82,18.23-5.85,2.26-13.94,4.23-18.33,8.55-7.1,6.99-10.66,17.66-16.83,25.55-1.69,2.16-2.71,3.15-5.38,2.06-12.47-5.08-25.25-9.33-37.89-13.95-16.1-5.89-31.38-14.42-47.79-19.33-17.3-5.18-35.42-11.17-53.61-11.62-8.55-.21-17.92,2.49-25.89,5.99-6.81,3-12.35,8.14-15.37,15.66-.89,2.2-4.3,4.85-4.08,7.26.54,6.04-.05,13.18,1.83,18.83,3.65,10.96,16.63,16.89,23.87,25.78,6.41,7.86,10.96,17.17,18.16,24.32,10.36,10.28,19.4,22.09,30.52,31.52,13.85,11.75,31.37,18.88,45.84,29.87,14.17,10.75,24.55,26.66,39.09,36.91,9.75,6.88,20.13,13.07,30.17,19.53,10.04,6.46,21.56,10.62,31.73,16.89,4.76,2.94,9.49,5.94,14.31,8.79,14.23,8.41,28.16,17.35,42.58,25.42,11.68,6.55,25.56,9,43.35,18.14,10.54,5.65,21.67,14.12,34.94,20.37,11.77,5.55,24.82,9.66,37.63,14.64,17.28,6.72,34.15,14.42,51.58,20.69,14.09,5.07,27.43,13.08,41.98,16.5,12.69,2.99,26.31,1.65,39.32,2.94,9.12.9,17.8.22,26.45-3.55,5.59-2.44,7.84-6.64,11.3-11.94,4.84-7.41,4.12-12.44,1.97-20.08Zm-160.03-298.82c2,1.18,3.98,4.02,4.03,7.66.17,11.71.13,23.42.09,35.13-.02,6.49-.15,12.97-.3,19.46-.11,4.95-4.53,9.01-10.17,9.44-5.08.39-9.96-3.04-10.63-7.9-.52-3.76-.61-7.6-.61-11.4-.01-14.51,0-29.02.18-43.53.09-7.76,9.28-13.07,17.4-8.86Zm-3.09,242.39c-12.28-.1-24.01-3.51-35.33-7.56-22.17-7.93-44-16.81-64.49-28.61-6.24-3.21-12.65-6.15-18.7-9.69-12.06-7.06-23.98-14.36-35.86-21.73-9.61-5.96-19.16-12.01-28.56-18.29-5.81-3.88-11.37-8.13-16.87-12.44-8.8-6.88-17.8-13.56-26.07-21.04-8.27-7.48-16.39-15.28-22-25.17-.13-.22-.26-.44-.38-.67-4.8-9.16-2.03-14.04,8.31-14.69,10.8-.68,20.85,2.84,30.97,5.71,6.1,1.72,12.01,4.15,17.96,6.37,4.4,1.64,8.87,3.18,13.07,5.25,20.13,9.92,40.49,19.43,60.15,30.22,17.01,9.35,33.38,19.93,49.67,30.53,11.48,7.47,22.25,16.03,33.52,23.84,12.2,8.44,22.95,18.53,33.18,29.15,4.17,4.33,7.33,9.68,10.6,14.79,4.71,7.38.82,14.09-9.17,14.01Z"/></svg>