<?xml version="1.0" encoding="UTF-8"?><svg id="design" xmlns="http://www.w3.org/2000/svg" viewBox="0 0 640 642.87"><defs><style>.cls-1{fill:#aaa;}</style></defs><polygon class="cls-1" points="542.57 382.26 542.44 417.13 542.99 451.83 542.81 486.56 524.69 488.25 493.25 487.85 461.83 488.35 430.39 487.3 401.93 471.55 386.4 436.27 373.55 399.96 362.53 363.11 351.84 326.18 343.45 288.66 335.81 250.99 329.16 232.45 328.59 268.75 327.61 304.93 330.49 341.1 329.99 377.28 329.07 413.45 327.67 449.64 329.39 485.84 312.79 487.57 313.32 451.39 310.93 414.95 310.68 378.51 312.07 342.08 313.54 305.65 313.06 269.22 312.55 232.77 309.72 232.73 297.77 276.83 293.93 311.21 282.24 343.73 272.21 376.56 263.7 409.98 249.06 441.16 233.88 471.94 210.79 486.22 173.24 489.22 135.74 486.07 98.36 487.32 98.79 451.98 100.05 416.51 98.24 381.09 54.48 412.29 41.84 419.1 30.72 418.15 34.19 408.47 60.87 387.2 89.46 367.18 117.5 346.4 144.23 323.95 172.67 303.62 197.88 279.4 224.34 256.66 248.66 231.64 272.71 206.43 297.73 182.07 320.08 153.75 355.27 193.82 379 222.84 405.64 249.16 433.51 274.15 462.94 297.29 491.87 320.96 519.96 345.75 550.04 367.98 580.41 389.81 602.75 403.59 609.96 419.14 591.35 417.83 558.87 393.2 542.57 382.26"/></svg>