<?xml version="1.0" encoding="utf-8"?>
<!-- Generator: Adobe Illustrator 27.1.1, SVG Export Plug-In . SVG Version: 6.00 Build 0)  -->
<svg version="1.1" id="design" xmlns="http://www.w3.org/2000/svg" xmlns:xlink="http://www.w3.org/1999/xlink" x="0px" y="0px"
	 viewBox="0 0 640 642.9" style="enable-background:new 0 0 640 642.9;" xml:space="preserve">
<style type="text/css">
	.st0{fill:#AC59F8;}
</style>
<path class="st0" d="M548.8,454.4c-3-13.2,3.1-9.5,3.3-16.5c2.5-9.1-7.9-24.7-16.4-28.4c-4-0.9-3.3-5.1-7.9-2.4
	c-3.2,0.2-5.4-4.6-8.3-0.7c-12.8,3.2-25.2-10.7-36.1-16.6c-11.2-5.5-23.6-7.3-33.9-14.9c-9-7.3-22.7-7.4-32-13.6
	c-4.8-6.3-11.8-10.8-16.9-16.8s-6-15-9.7-22c-3.1-5.8-14.1-3.1-15-10.3c0.4-3.7-7-6.4-7-10c1.7-8.2-2.1-22.5,8.6-25.3
	c10.4-3.2,21.3-6.3,31.9-9.7c10.7-3.5,19.9-8.8,28-16.8c7-6.7,10.3-14,11.3-22.7c1-8.7,0.6-17.6-2.8-26.1c-3.4-8.5-7.9-16.8-14-22.9
	c-1.7-1.8-0.8-8.6-1.2-10.4c-0.8-8.9,0.2-18.4,0.1-27.4c0.3-3.7-1.1-7.8,0.9-11.4c0.2-7.4-7.9-14.1-6.8-21.7c1.9-9.8-2-7.6-7.5-2.4
	c-7,4.9-3.5,26.2-9.7,23.8c-11.6-1.3-14.5-17.9-23.9-23.4c-8.6-6.5-18.8-11.7-28.9-16.1c-10.1-4.4-21.7-3.8-32.4-5.2
	s-22.1-5.1-32.8-2.6s-19.1,9.8-28.2,17c-9.4,6.2-16.1,20.8-26.2,22c-10.8-0.4-20.2,3.9-28.8,4.8c-11.2,1.1-19.8,4.1-27.5,7
	c-10.9,4.1-19.4,7.4-24.2,14.2c-5.6,8-7,17.5-5.4,27.7c1.4,8.6,5,17.6,10.7,26.7c4.8,7.6,9.1,16.9,16.4,24.2
	c6.5,6.5,15.6,11.1,23.9,17c7.6,5.4,16.3,9.9,25.2,14.4c9.3,6,6.7,21.7,11.9,31c3.5,9,11.5,15.1,17.7,22.6c4.1,3.8,7.8,15.9,1.7,19
	c-6.3,10.5-14.5,16.1-19.6,22.5c-7.8,9.6-13.3,17.3-21.1,21.6s-16.2,8.8-27.3,13.3c-7.7,3.2-18.4,3.1-29,8.6
	c-7,2.6-15.6,3.6-22.9,6.8s-15.1,9.3-18.3,17.2c-3.2,9.2-5.5,19-8.5,28.6s-3.2,19.6-5.9,29.2c-2.7,9.5-7.1,18.5-9.6,28.2
	c-2.5,9.6-4.8,19.2-7.1,28.9S85,554.3,82.9,564c-2.1,9.7-3,19.6-4.8,29.3c-1.9,9.8-4,19.5-5.6,29.1c-1.6,9.9-5.5,20.5-5.5,20.5
	h506.5c0,0-4.8-38.3-5.8-47.8c-1-9.3-1.2-18.8-2.4-28.3c-1.1-9.4-3.1-18.7-4.4-28c-1.3-9.4-4.7-18.5-6.2-27.7
	c-1.5-9.4,1.8-19.7,0.1-28.8C553,472.8,550.9,463.4,548.8,454.4L548.8,454.4z"/>
</svg>
