<?xml version="1.0" encoding="UTF-8"?><svg id="design" xmlns="http://www.w3.org/2000/svg" viewBox="0 0 640 642.87"><defs><style>.cls-1{fill:#cc963e;}</style></defs><path class="cls-1" d="m320,61.98c-15.23,0-29.75,5.86-44.26,8.41-14.91,2.62-30.91,1.16-44.83,6.24-14.15,5.17-26.24,15.26-39.11,22.72-12.99,7.53-25.82,15.3-37.24,24.91-11.46,9.63-24.26,18.47-33.89,29.93-9.61,11.43-13.27,27.2-20.79,40.19s-16.19,25.03-21.36,39.19c-5.08,13.92-5.01,29.04-7.63,43.96s-11.81,28.69-11.81,43.92,4.88,30.18,7.44,44.69,2.94,30.73,8.02,44.64c5.17,14.15,17.68,24.98,25.14,37.85s14.21,26.28,23.81,37.71c9.63,11.46,17.16,25.58,28.62,35.21,11.43,9.61,24.5,18.28,37.48,25.81s27.34,13.26,41.5,18.42,29.82,3.64,44.73,6.26c14.51,2.55,28.95,6.82,44.18,6.82s30.75,1.89,45.26-.66c14.91-2.62,29.79-7.19,43.71-12.27,14.15-5.17,24.53-18.08,37.41-25.54,12.99-7.53,25.37-14.86,36.8-24.46,11.46-9.63,21.71-19.81,31.34-31.28,9.61-11.43,19.54-22.31,27.06-35.3,7.46-12.87,11.25-27.15,16.41-41.3,5.08-13.92,9.72-27.55,12.35-42.47s10.92-28.91,10.92-44.14-3.06-30.56-5.61-45.07c-2.62-14.91-7.15-29.6-12.23-43.51-5.17-14.15-9.78-29.12-17.24-41.99-7.53-12.99-22.71-20.66-32.31-32.09-9.63-11.46-19.83-21.48-31.29-31.11-11.43-9.61-21.77-20.14-34.75-27.67s-26.39-13.25-40.54-18.42c-13.92-5.08-27.53-11.88-42.44-14.5s-29.61-5.1-44.84-5.1Zm32.77,245.9c-8.64-20.87-4.39-21.73-4.39-44.32s5.61-22.58,5.61-45.17c0-22.59-4.01-22.59-4.01-45.17s-6.28-23.7,1.01-45.08c14.61,2.31,27.41,9.05,40.98,14.53s29.48,7.2,41.57,15.64c11.96,8.35,21.52,20.37,31.52,31.36,10.91,12,23.78,23.31,31.32,37.34,7.61,14.16,6.06,32.12,9.97,47.7s9.32,30.54,9.32,46.75c0,13.72-5.21,26.52-8.05,39.83-2.86,13.36-.68,28.36-6.24,40.84-5.54,12.44-15.19,23.71-23.25,34.8-20.02-10.43-12.79-19.37-28.75-35.33-15.96-15.96-16.26-15.66-32.21-31.62-15.96-15.96-15.34-17.09-32.76-31.46-17.38-14.33-22.99-9.79-31.62-30.64Zm0,206.12c-7.51-18.4-4.4-19.03-4.4-38.91,0-19.88,5.61-19.88,5.61-39.75s-21.91-32.8-3.55-40.43c18.33-7.62,14.12,14.92,28.16,28.96,14.04,14.04,12.05,16.03,26.09,30.07s25.37,6.42,33.04,24.73c-12.5,9.11-28.61,18.05-42.71,23.92-14.14,5.88-27.01,9-42.24,11.41Zm-64.35-116.36c18.35,7.63,3.19,17.82,3.19,37.7,0,19.88-5.61,19.88-5.61,39.76s11.46,21.63,3.96,40.04c-15.23-2.41-30.63-7.16-44.78-13.05s-24.79-11.96-37.29-21.08c7.67-18.31,9.06-17.36,23.1-31.4,14.04-14.04,19.78-9.05,29.98-26.09,10.93-18.24,9.12-33.51,27.45-25.89Zm-1.25-268.87c7.29,21.37,4.44,21.86,4.44,44.45s-5.61,22.58-5.61,45.16c0,22.58,4.01,22.58,4.01,45.17s7.64,24.19-1,45.06c-8.63,20.85-17.89,13.88-33.84,29.84s-11.64,20.27-27.6,36.23c-15.96,15.96-17.9,14.02-33.86,29.98s-10.1,25.11-30.12,35.54c-8.06-11.09-13.51-28.28-19.06-40.72-5.56-12.48-13.05-24.04-15.91-37.4-2.85-13.31-.48-26.91-.48-40.63,0-16.21-4.67-32.87-.79-48.32,3.91-15.58,11.91-30.21,19.51-44.37s20.36-24.16,31.28-36.16c9.99-10.99,20.16-20.46,32.12-28.81,12.09-8.44,24-15.92,37.62-21.42s24.65-11.28,39.27-13.6Z"/></svg>