<?xml version="1.0" encoding="utf-8"?>
<!-- Generator: Adobe Illustrator 27.1.1, SVG Export Plug-In . SVG Version: 6.00 Build 0)  -->
<svg version="1.1" id="design" xmlns="http://www.w3.org/2000/svg" xmlns:xlink="http://www.w3.org/1999/xlink" x="0px" y="0px"
	 viewBox="0 0 640 642.9" style="enable-background:new 0 0 640 642.9;" xml:space="preserve">
<style type="text/css">
	.st0{fill:#FF6919;}
</style>
<path class="st0" d="M86.3,642.9c0,0-2.5-13-2.3-23.6c0.2-10-0.9-20.5-0.4-30.8s7.2-20,8.3-30.2s-1.3-20.9,0.6-30.9
	s2.9-20.7,5.8-30.4s10.1-18.3,14.4-27.4c4.5-9.4,6.9-20,13-28c6.1-8,13.9-15.6,22.1-21.8c7.9-6,18.5-7.8,28.4-11.7
	c9-3.5,17.5-9.8,28.4-11.3c6.2-3.8,12.5-5.9,20-7.2c10.1-2.9,23-15.8,24.2-26.6c-0.1-16.1,2.5-22.6,4.1-26.9c2.3-6.1,2.9-8-8.3-25.4
	c-4.7-6.1-5.2-26.3-10.4-28c-10.9-2-7.1-15.6-17-18.3c-11.3-0.9-21.8-3.9-31.6-6.6c-11.3-3.2-22.1-6.3-30.4-11.5
	c-10.4-6.5-14.8-16.9-19.1-25.2c-4.9-9.8-5.7-18,0.2-28.5c4.3-7.6,11-14.3,22.2-21.4c7.8-4.9,15.3-13.5,26.9-17.8
	c5.9-3.7,33.8-8.8,30.8-16.5c0.2-11.4,8.1-20.7,15.1-29.4s14.2-17.3,21.5-24.7c7.8-10.1,16.5-16.2,25.2-16.3
	c9.1-0.2,19.7,4.6,28.8,9.9c8.5,5,15,14.3,22.8,19.3c8.2,5.1,15.1,10.8,24,14.2c10.5-0.1,20.5,2.7,31,3.2
	c10.5,0.5,21.4-0.1,31.7,2.2c10.5,2.4,18,10.2,25.9,14.3c9.8,5.1,20.8,7.2,26,14.2c6.2,8.4,6.9,19.2,5.6,29.1
	c-1.1,8.6-7,15.8-14.5,24.5c-5.5,6.5-10.1,15.9-19.5,22.1c-10,6.8-25.2,6-34.9,13.1c-2.2,3.1-1.5,9.3-1.9,13
	c-6.9,11.9-8.1,33.5-26.7,28.2c-7.1-3.5-6.5,33.7-8.5,38.7c-3.7,12.1,9,22.2,13.4,33.1c2.6,4.8,4.1,17.4,10.4,16.4
	c16.6-2.6,10.8,7.6,22.4,11.9c7.2,3.1,15.1-0.2,22.6,2.2c7.9,2,15,6.1,23.5,7.2c5.4,1.5,11.5,0.9,15.9,5c3.3,2.5,9.4,0,12.7,2.8
	c3.4,2.7,11.3,0,11.9,6c1.7,9.7,8.5,9.6,15.9,15.9c4.6,4,5.5,12.8,9.3,23.5c4.1,8.8,8.8,18,11.8,28.6c2.7,9.6,3,20,4.9,30.6
	c1.8,10,8.2,19.5,9.4,30s-0.2,20.8,0.5,31.2c0.7,10.4,2.4,20.8,2.7,31c0.3,10.6-0.7,21.1-0.8,31.1c-0.1,10.9-1.2,23.9-1.2,23.9H86.3
	L86.3,642.9z"/>
</svg>
