<?xml version="1.0" encoding="UTF-8"?><svg id="design" xmlns="http://www.w3.org/2000/svg" viewBox="0 0 640 642.87"><defs><style>.cls-1{fill:#02a54b;}</style></defs><path class="cls-1" d="m507.98,186.99c-.76.13-22.49-.75-41.61,7.27-5.98,2.51-20.54,14.33-32.14,3.57-6.54-6.05-7.66-28.34-8.53-30.31-4.51-9.91-13.31-16.12-21.86-20.25-10.95-5.28-23.46-7.04-25.48-14.9-2.77-10.66,9.69-23.39,28.26-15.79,40.9,16.64,43.98,20.67,33.68,12.35-1.61-1.35-2.09-5.65-5.05-7.3-.76-.49-1.66-.69-2.29-.97-.66-.36-2.87,2.02-3.57,1.68-11.19-6.17-21.66-13.68-33.86-17.99s-24.08-9.36-36.89-11.56c-12.47-2.14-25.55-4.37-38.63-4.37-11.9,0-23.67,3.05-35.07,4.8s-23.45,3.7-34.51,7.19-22.45,7.76-32.87,12.92-19.98,12.57-29.53,19.28-16.06,16.94-24.51,25.03c-8.45,8.09-19.88,13.4-27.03,22.69.19,0,0-.41.17-.41-.61.69-1.14,2.44-.42,1.87,20.34-16.32,20.2-5.55,37.11-7.18,7.69-.74,17.41-9.83,36.19-17.19,2.15-.88,20.33,1.89,23.75,2.78,18.42,4.84,34.09,4.38,46.73,4.65,29.76.64,42.98-7.87,44.59-8.98,10.47-7.13,21.03-10.11,28.99-11.36,13.69-2.15,21.21,4.21,21.3,14.7.09,10.19,4.67,20.4-7.77,17.54-17.89-4.14-26-21.15-28.54-.81-1.84,14.79-31.99,15.57-27.42,25,2.96,6.12,29.62-4.03,41.82-11.13,12.2-7.09,24.49,4.3,25.28,6.02,8.74,18.87,32.13,27.6,34.8,28.66,20.71,8.21.17,22.8-11.95,29.15-.17.08-16.62,13.21-32.94,27.58-13.89,12.23-29.26,25.11-37.56,23.19-2.26-.52-6.49-14.48-9.47-15.22-23.61-5.9-33.5,7.43-34.61,19.33-1.6,17.07,13.04,37.62,21.73,18.65,6.15-13.41,8.07,6.54,8.16,14.67.1,8.12-.22,11.58,8.37,17.62.5.92,12.49,2.72,13.51,6.17,1.52,1.8,4.47,2.39,6.24.83,8.4-7.38,7.68-15.61,18.13-14.48,10.86,1.18,24.99,7.08,37.24,12.81,16.9,7.91,29.18,21.83,31.69,23.08,13.57,6.79,24.98,11.84,27.83,20.99,3.35,10.74-2.62,22.8-10.91,33.36-6.42,8.18-16.89,13.37-28.48,19.48-12.45,6.63-10.53,37.25-25.16,26.92-4.42-3.1-12.75,10.32-19.49,25.82-5.94,13.66-9.65,25.2-10.23,29.6,12.71-2.5,23.86-4.45,35.73-8.95,12.06-4.57,24.06-8.79,35.05-15.22,11.09-6.49,23.71-11.23,33.52-19.43s15.73-20.66,24.07-30.39c8.32-9.71,14.25-20.73,20.88-31.73,6.58-10.92,12.69-21.64,17.41-33.64s8.9-23.41,11.56-36.09c-.56-.72,3.58-2.1,3.01-2.96.16-.35-4.26-.64-4.16-.88.89-1.74,2.88-5.98,2.46-7.28-.43-1.34-.45-2.01-.65-3.96-.23-1.97,1.64-3.13,1.42-5.97-.23-2.8.92-2,1.81-7.01.88-5.01-2.31-4.16-2.97-6.99-.24-1.06,1.16-.32,1.95-1.06.31-.26-.77-2.2-.37-2.56.91-.66,1.43-1.62,1.9-2.37.86-.78-1.17-1.31-.76-1.81.06-1.63,3.71-2.57,3.71-4.28,0-11.95.34-23.94-1.43-35.4-1.81-11.76-8.11-22.35-11.64-33.44-3.59-11.29-7.33-22.2-12.54-32.67-5.26-10.57-8.24-22.41-14.99-32-.54-.9-2.18-.95-2.18-.95Z"/><path class="cls-1" d="m338.63,379.2c4.83-9.67-5.86-9.83-14.67-16.89-12.86-10.32-31.76-12.35-34.75-13.57-6.4-2.66-27.27-29.49-32.99-36.6-4.86-6.11-3.65-13.78-12-10.12-.17.07-.27.01-.33.06-5.55,3.68-16.98,3.23-24.32-26.12-1.34-5.29.53-8.07,2.25-10.5,4.65-6.3.5-17.44-6.98-29.87s-14.5-25.45-17.84-29.47c-3.39-4.08-16.44-1.38-21.42-.67-1.45-.86-5,3.2-6.33,3.2-1.54,0,3.53-1.85,4.42-3.58.86-1.77-4.73.48-6.01.26-1.31-.2,4.39-3.44,5.25-5.42,1.55-3.42-16.15,3.73-19.57,5.33-4.15,1.97-2.58,2.86-3.87,4.39-1.29,1.52-2.42,4.05-3.97,5.36-1.49,1.34,3.69,4.34,5,4.59,1.68.29.56,1.92-3.15,1.24-6.72,2.38-3.47,9.02-9.9,12.47-1.08.22-4.14-5.27-4.02-5.89,1.77-1.13,4.38-.05,6.45-.48,2.82-.6,1.22-5.04-.42-5.46-.58-.19-3.21-.45-3.29-.77.04-.29,1.66-.88,1.7-1.02.13-.39,3.44.92,3.76.45.78-1.15-6.58-2.08-9.41-2.08s-4.38-2.62-5.04-5.68c-1.24-5.71,16.97-8.08,10.32-12.22-.93-3.68-2.81-.38-6.27-1.51-.93-.32-2.08,2.81-3.3,3.74-1.06.78-4.04-.58-5.26-.53-7.21,11.84-12.03,25.07-17.05,38.17-4.94,12.88-11.57,25.62-14.13,39.5-2.49,13.47-5.73,27.73-5.73,41.94,0,12.26,5.84,24.15,7.68,35.89s7.09,22.87,10.78,34.23c3.75,11.56,6.58,23.02,12.03,33.7s10.3,21.88,17.37,31.6c7.11,9.77,14.65,19.28,23.17,27.81,8.52,8.52,17.5,16.79,27.27,23.9s20.26,13.26,31.05,18.77c10.68,5.45,21.13,12.62,32.69,16.37,11.36,3.69,23.77,5.63,35.82,7.53,11.74,1.84,24.14-.26,36.4-.26,9.56,0,19.59,2.87,28.86,1.73-.09-.83-.25-27.12,2.41-34.98,1.48-4.39,1.7-19.76,3.21-35.43,1.42-14.73,5.72-29.45,4.75-35.61-2.12-13.59-5.85-11.86-11.45-32.17-2.07-7.5-2.14-18.63-5.85-33.72-.69-1.67-3.3-1.58-3.3-1.58Z"/></svg>